<svg version="1.1" xmlns="http://www.w3.org/2000/svg" viewBox="-2296.832063293457 -1034.2400390625 4941.824169921874 2385.920068359375"><desc>Created with Snap</desc><defs></defs><g><rect x="-2296.832063293457" y="-1034.2400390625" width="4941.824169921874" height="2385.920068359375" fill="#0560af" style=""></rect><g transform="matrix(14.8369,0,0,14.8369,-2053.4305,-790.8385)">
<g display="none">
	<g display="inline">
		<rect fill="none" stroke="#bbe5e8" stroke-width="0.1" stroke-miterlimit="10" width="128" height="128" style=""></rect>
		<line fill="none" stroke="#bbe5e8" stroke-width="0.1" stroke-miterlimit="10" x1="0" y1="124" x2="128" y2="124" style=""></line>
		<line fill="none" stroke="#bbe5e8" stroke-width="0.1" stroke-miterlimit="10" x1="0" y1="120" x2="128" y2="120" style=""></line>
		<line fill="none" stroke="#bbe5e8" stroke-width="0.1" stroke-miterlimit="10" x1="0" y1="116" x2="128" y2="116" style=""></line>
		<line fill="none" stroke="#bbe5e8" stroke-width="0.1" stroke-miterlimit="10" x1="0" y1="112" x2="128" y2="112" style=""></line>
		<line fill="none" stroke="#bbe5e8" stroke-width="0.1" stroke-miterlimit="10" x1="0" y1="108" x2="128" y2="108" style=""></line>
		<line fill="none" stroke="#bbe5e8" stroke-width="0.1" stroke-miterlimit="10" x1="0" y1="104" x2="128" y2="104" style=""></line>
		<line fill="none" stroke="#bbe5e8" stroke-width="0.1" stroke-miterlimit="10" x1="0" y1="100" x2="128" y2="100" style=""></line>
		<line fill="none" stroke="#bbe5e8" stroke-width="0.1" stroke-miterlimit="10" x1="0" y1="96" x2="128" y2="96" style=""></line>
		<line fill="none" stroke="#bbe5e8" stroke-width="0.1" stroke-miterlimit="10" x1="0" y1="92" x2="128" y2="92" style=""></line>
		<line fill="none" stroke="#bbe5e8" stroke-width="0.1" stroke-miterlimit="10" x1="0" y1="88" x2="128" y2="88" style=""></line>
		<line fill="none" stroke="#bbe5e8" stroke-width="0.1" stroke-miterlimit="10" x1="0" y1="84" x2="128" y2="84" style=""></line>
		<line fill="none" stroke="#bbe5e8" stroke-width="0.1" stroke-miterlimit="10" x1="0" y1="80" x2="128" y2="80" style=""></line>
		<line fill="none" stroke="#bbe5e8" stroke-width="0.1" stroke-miterlimit="10" x1="0" y1="76" x2="128" y2="76" style=""></line>
		<line fill="none" stroke="#bbe5e8" stroke-width="0.1" stroke-miterlimit="10" x1="0" y1="72" x2="128" y2="72" style=""></line>
		<line fill="none" stroke="#bbe5e8" stroke-width="0.1" stroke-miterlimit="10" x1="0" y1="68" x2="128" y2="68" style=""></line>
		<line fill="none" stroke="#bbe5e8" stroke-width="0.1" stroke-miterlimit="10" x1="0" y1="64" x2="128" y2="64" style=""></line>
		<line fill="none" stroke="#bbe5e8" stroke-width="0.1" stroke-miterlimit="10" x1="0" y1="60" x2="128" y2="60" style=""></line>
		<line fill="none" stroke="#bbe5e8" stroke-width="0.1" stroke-miterlimit="10" x1="0" y1="56" x2="128" y2="56" style=""></line>
		<line fill="none" stroke="#bbe5e8" stroke-width="0.1" stroke-miterlimit="10" x1="0" y1="52" x2="128" y2="52" style=""></line>
		<line fill="none" stroke="#bbe5e8" stroke-width="0.1" stroke-miterlimit="10" x1="0" y1="48" x2="128" y2="48" style=""></line>
		<line fill="none" stroke="#bbe5e8" stroke-width="0.1" stroke-miterlimit="10" x1="0" y1="44" x2="128" y2="44" style=""></line>
		<line fill="none" stroke="#bbe5e8" stroke-width="0.1" stroke-miterlimit="10" x1="0" y1="40" x2="128" y2="40" style=""></line>
		<line fill="none" stroke="#bbe5e8" stroke-width="0.1" stroke-miterlimit="10" x1="0" y1="36" x2="128" y2="36" style=""></line>
		<line fill="none" stroke="#bbe5e8" stroke-width="0.1" stroke-miterlimit="10" x1="0" y1="32" x2="128" y2="32" style=""></line>
		<line fill="none" stroke="#bbe5e8" stroke-width="0.1" stroke-miterlimit="10" x1="0" y1="28" x2="128" y2="28" style=""></line>
		<line fill="none" stroke="#bbe5e8" stroke-width="0.1" stroke-miterlimit="10" x1="0" y1="24" x2="128" y2="24" style=""></line>
		<line fill="none" stroke="#bbe5e8" stroke-width="0.1" stroke-miterlimit="10" x1="0" y1="20" x2="128" y2="20" style=""></line>
		<line fill="none" stroke="#bbe5e8" stroke-width="0.1" stroke-miterlimit="10" x1="0" y1="16" x2="128" y2="16" style=""></line>
		<line fill="none" stroke="#bbe5e8" stroke-width="0.1" stroke-miterlimit="10" x1="0" y1="12" x2="128" y2="12" style=""></line>
		<line fill="none" stroke="#bbe5e8" stroke-width="0.1" stroke-miterlimit="10" x1="0" y1="8" x2="128" y2="8" style=""></line>
		<line fill="none" stroke="#bbe5e8" stroke-width="0.1" stroke-miterlimit="10" x1="0" y1="4" x2="128" y2="4" style=""></line>
		<line fill="none" stroke="#bbe5e8" stroke-width="0.1" stroke-miterlimit="10" x1="124" y1="0" x2="124" y2="128" style=""></line>
		<line fill="none" stroke="#bbe5e8" stroke-width="0.1" stroke-miterlimit="10" x1="120" y1="0" x2="120" y2="128" style=""></line>
		<line fill="none" stroke="#bbe5e8" stroke-width="0.1" stroke-miterlimit="10" x1="116" y1="0" x2="116" y2="128" style=""></line>
		<line fill="none" stroke="#bbe5e8" stroke-width="0.1" stroke-miterlimit="10" x1="112" y1="0" x2="112" y2="128" style=""></line>
		<line fill="none" stroke="#bbe5e8" stroke-width="0.1" stroke-miterlimit="10" x1="108" y1="0" x2="108" y2="128" style=""></line>
		<line fill="none" stroke="#bbe5e8" stroke-width="0.1" stroke-miterlimit="10" x1="104" y1="0" x2="104" y2="128" style=""></line>
		<line fill="none" stroke="#bbe5e8" stroke-width="0.1" stroke-miterlimit="10" x1="100" y1="0" x2="100" y2="128" style=""></line>
		<line fill="none" stroke="#bbe5e8" stroke-width="0.1" stroke-miterlimit="10" x1="96" y1="0" x2="96" y2="128" style=""></line>
		<line fill="none" stroke="#bbe5e8" stroke-width="0.1" stroke-miterlimit="10" x1="92" y1="0" x2="92" y2="128" style=""></line>
		<line fill="none" stroke="#bbe5e8" stroke-width="0.1" stroke-miterlimit="10" x1="88" y1="0" x2="88" y2="128" style=""></line>
		<line fill="none" stroke="#bbe5e8" stroke-width="0.1" stroke-miterlimit="10" x1="84" y1="0" x2="84" y2="128" style=""></line>
		<line fill="none" stroke="#bbe5e8" stroke-width="0.1" stroke-miterlimit="10" x1="80" y1="0" x2="80" y2="128" style=""></line>
		<line fill="none" stroke="#bbe5e8" stroke-width="0.1" stroke-miterlimit="10" x1="76" y1="0" x2="76" y2="128" style=""></line>
		<line fill="none" stroke="#bbe5e8" stroke-width="0.1" stroke-miterlimit="10" x1="72" y1="0" x2="72" y2="128" style=""></line>
		<line fill="none" stroke="#bbe5e8" stroke-width="0.1" stroke-miterlimit="10" x1="68" y1="0" x2="68" y2="128" style=""></line>
		<line fill="none" stroke="#bbe5e8" stroke-width="0.1" stroke-miterlimit="10" x1="64" y1="0" x2="64" y2="128" style=""></line>
		<line fill="none" stroke="#bbe5e8" stroke-width="0.1" stroke-miterlimit="10" x1="60" y1="0" x2="60" y2="128" style=""></line>
		<line fill="none" stroke="#bbe5e8" stroke-width="0.1" stroke-miterlimit="10" x1="56" y1="0" x2="56" y2="128" style=""></line>
		<line fill="none" stroke="#bbe5e8" stroke-width="0.1" stroke-miterlimit="10" x1="52" y1="0" x2="52" y2="128" style=""></line>
		<line fill="none" stroke="#bbe5e8" stroke-width="0.1" stroke-miterlimit="10" x1="48" y1="0" x2="48" y2="128" style=""></line>
		<line fill="none" stroke="#bbe5e8" stroke-width="0.1" stroke-miterlimit="10" x1="44" y1="0" x2="44" y2="128" style=""></line>
		<line fill="none" stroke="#bbe5e8" stroke-width="0.1" stroke-miterlimit="10" x1="40" y1="0" x2="40" y2="128" style=""></line>
		<line fill="none" stroke="#bbe5e8" stroke-width="0.1" stroke-miterlimit="10" x1="36" y1="0" x2="36" y2="128" style=""></line>
		<line fill="none" stroke="#bbe5e8" stroke-width="0.1" stroke-miterlimit="10" x1="32" y1="0" x2="32" y2="128" style=""></line>
		<line fill="none" stroke="#bbe5e8" stroke-width="0.1" stroke-miterlimit="10" x1="28" y1="0" x2="28" y2="128" style=""></line>
		<line fill="none" stroke="#bbe5e8" stroke-width="0.1" stroke-miterlimit="10" x1="24" y1="0" x2="24" y2="128" style=""></line>
		<line fill="none" stroke="#bbe5e8" stroke-width="0.1" stroke-miterlimit="10" x1="20" y1="0" x2="20" y2="128" style=""></line>
		<line fill="none" stroke="#bbe5e8" stroke-width="0.1" stroke-miterlimit="10" x1="16" y1="0" x2="16" y2="128" style=""></line>
		<line fill="none" stroke="#bbe5e8" stroke-width="0.1" stroke-miterlimit="10" x1="12" y1="0" x2="12" y2="128" style=""></line>
		<line fill="none" stroke="#bbe5e8" stroke-width="0.1" stroke-miterlimit="10" x1="8" y1="0" x2="8" y2="128" style=""></line>
		<line fill="none" stroke="#bbe5e8" stroke-width="0.1" stroke-miterlimit="10" x1="4" y1="0" x2="4" y2="128" style=""></line>
	</g>
</g>
<g>
	<g>
		<path d="M64,45.3c11.3,0,20.5-9.2,20.5-20.5S75.3,4.3,64,4.3s-20.5,9.2-20.5,20.5S52.7,45.3,64,45.3z M64,9.3
			c8.5,0,15.5,6.9,15.5,15.5c0,8.5-6.9,15.5-15.5,15.5s-15.5-6.9-15.5-15.5C48.5,16.3,55.5,9.3,64,9.3z" fill="#bbe5e8" style=""></path>
		<path d="M24.8,123.7c11.3,0,20.5-9.2,20.5-20.5s-9.2-20.5-20.5-20.5S4.3,91.9,4.3,103.2S13.5,123.7,24.8,123.7z M24.8,87.7
			c8.5,0,15.5,6.9,15.5,15.5c0,8.5-6.9,15.5-15.5,15.5s-15.5-6.9-15.5-15.5C9.3,94.7,16.3,87.7,24.8,87.7z" fill="#bbe5e8" style=""></path>
		<path d="M103.2,123.7c11.3,0,20.5-9.2,20.5-20.5s-9.2-20.5-20.5-20.5s-20.5,9.2-20.5,20.5S91.9,123.7,103.2,123.7z M103.2,87.7
			c8.5,0,15.5,6.9,15.5,15.5c0,8.5-6.9,15.5-15.5,15.5s-15.5-6.9-15.5-15.5C87.7,94.7,94.7,87.7,103.2,87.7z" fill="#bbe5e8" style=""></path>
	</g>
</g>
<desc>Created with Snap</desc><defs></defs></g><g><g transform="matrix(1.024,0,0,-1.024,0,0)"><path d="M159 0L110 0Q100 0 93 6Q87 13 87 23L87 676Q87 687 93 693Q100 700 110 700L160 700Q172 700 178 694Q184 688 186 684L397 280L610 684Q612 688 617 694Q623 700 635 700L684 700Q695 700 701 693Q708 687 708 676L708 23Q708 13 701 6Q695 0 684 0L635 0Q625 0 618 6Q612 13 612 23L612 515L445 189Q441 179 433 173Q425 168 413 168L382 168Q369 168 362 173Q355 179 350 189L182 515L182 23Q182 13 175 6Q169 0 159 0ZM1076 -10Q972 -10 911 53Q850 117 844 227Q843 240 843 260Q843 281 844 294Q848 365 877 418Q906 472 956 501Q1007 530 1075 530Q1151 530 1202 498Q1254 466 1281 407Q1308 348 1308 269L1308 252Q1308 241 1301 235Q1295 229 1285 229L939 229Q939 228 939 225Q939 222 939 220Q941 179 957 143Q973 108 1003 86Q1034 64 1075 64Q1111 64 1135 75Q1159 86 1174 99Q1189 113 1194 121Q1203 133 1208 135Q1213 138 1224 138L1273 138Q1282 138 1288 132Q1295 127 1294 117Q1293 102 1278 80Q1263 59 1235 38Q1208 17 1167 3Q1127 -10 1076 -10ZM939 301L939 298L1213 298L1213 301Q1213 346 1196 381Q1180 416 1149 436Q1118 457 1075 457Q1032 457 1001 436Q971 416 955 381Q939 346 939 301ZM1636 -10Q1532 -10 1471 53Q1410 117 1404 227Q1403 240 1403 260Q1403 281 1404 294Q1408 365 1437 418Q1466 472 1516 501Q1567 530 1635 530Q1711 530 1762 498Q1814 466 1841 407Q1868 348 1868 269L1868 252Q1868 241 1861 235Q1855 229 1845 229L1499 229Q1499 228 1499 225Q1499 222 1499 220Q1501 179 1517 143Q1533 108 1563 86Q1594 64 1635 64Q1671 64 1695 75Q1719 86 1734 99Q1749 113 1754 121Q1763 133 1768 135Q1773 138 1784 138L1833 138Q1842 138 1848 132Q1855 127 1854 117Q1853 102 1838 80Q1823 59 1795 38Q1768 17 1727 3Q1687 -10 1636 -10ZM1499 301L1499 298L1773 298L1773 301Q1773 346 1756 381Q1740 416 1709 436Q1678 457 1635 457Q1592 457 1561 436Q1531 416 1515 381Q1499 346 1499 301ZM2260 0L2191 0Q2135 0 2100 21Q2065 43 2049 82Q2033 122 2033 176L2033 440L1955 440Q1945 440 1938 446Q1932 453 1932 463L1932 497Q1932 507 1938 513Q1945 520 1955 520L2033 520L2033 687Q2033 697 2039 703Q2046 710 2056 710L2103 710Q2113 710 2119 703Q2126 697 2126 687L2126 520L2250 520Q2261 520 2267 513Q2273 507 2273 497L2273 463Q2273 453 2267 446Q2261 440 2250 440L2126 440L2126 183Q2126 136 2142 109Q2158 82 2199 82L2260 82Q2270 82 2276 75Q2283 69 2283 59L2283 23Q2283 13 2276 6Q2270 0 2260 0Z" fill="#ffffff" style=""></path></g></g><g transform="matrix(1,0,0,1,0,1034.24)"><g transform="matrix(1.024,0,0,-1.024,0,0)"><path d="M159 0L110 0Q100 0 93 6Q87 13 87 23L87 676Q87 687 93 693Q100 700 110 700L160 700Q172 700 178 694Q184 688 186 684L397 280L610 684Q612 688 617 694Q623 700 635 700L684 700Q695 700 701 693Q708 687 708 676L708 23Q708 13 701 6Q695 0 684 0L635 0Q625 0 618 6Q612 13 612 23L612 515L445 189Q441 179 433 173Q425 168 413 168L382 168Q369 168 362 173Q355 179 350 189L182 515L182 23Q182 13 175 6Q169 0 159 0ZM1076 -10Q972 -10 911 53Q850 117 844 227Q843 240 843 260Q843 281 844 294Q848 365 877 418Q906 472 956 501Q1007 530 1075 530Q1151 530 1202 498Q1254 466 1281 407Q1308 348 1308 269L1308 252Q1308 241 1301 235Q1295 229 1285 229L939 229Q939 228 939 225Q939 222 939 220Q941 179 957 143Q973 108 1003 86Q1034 64 1075 64Q1111 64 1135 75Q1159 86 1174 99Q1189 113 1194 121Q1203 133 1208 135Q1213 138 1224 138L1273 138Q1282 138 1288 132Q1295 127 1294 117Q1293 102 1278 80Q1263 59 1235 38Q1208 17 1167 3Q1127 -10 1076 -10ZM939 301L939 298L1213 298L1213 301Q1213 346 1196 381Q1180 416 1149 436Q1118 457 1075 457Q1032 457 1001 436Q971 416 955 381Q939 346 939 301Z" fill="#ffffff" style=""></path></g></g></g></svg>